<?xml version="1.0" encoding="utf-8"?>
<!-- Generator: Adobe Illustrator 20.1.0, SVG Export Plug-In . SVG Version: 6.00 Build 0)  -->
<svg version="1.1" id="Layer_1" xmlns="http://www.w3.org/2000/svg" xmlns:xlink="http://www.w3.org/1999/xlink" x="0px" y="0px"
	 viewBox="0 0 435.5 73.8" style="enable-background:new 0 0 435.5 73.8;" xml:space="preserve">
<style type="text/css">
	.st0{fill:#FFFFFF;}
</style>
<g>
	<path class="st0" d="M85.9,57.4l-10.5-4.7c-0.6-0.3-1.1-0.1-1.4,0.5c-1.8,4.3-4.9,7.5-10.5,7.5c-2.3,0-4.2-0.6-5.8-1.6
		c0,0.1-0.1,0.3-0.1,0.4c-1.4,4.3-3.6,8.1-6.4,11.2c3.5,1.7,7.6,2.6,12.2,2.6c11.1,0,19.3-5.4,22.9-14.6
		C86.7,58.1,86.5,57.6,85.9,57.4"/>
	<path class="st0" d="M86.4,19.8C82.7,10.6,74.6,5.2,63.4,5.2c-7.5,0-13.7,2.3-18.1,6.9l0,0c-2.3,2.4-4.1,5.5-5.3,9.3
		c-1.3,3.9-1.8,7.1-1.8,15.7l0,0c0,0.7,0,1.4,0,2.1c0,8.6-0.3,11.8-1.1,14.1c-1.5,4.5-4.9,7.3-10.4,7.3c-5.4,0-8.9-2.7-10.4-7.3
		c-0.8-2.3-1.1-5.5-1.1-14.1c0-8.6,0.3-11.8,1.1-14.1c1.5-4.5,4.9-7.3,10.4-7.3c2.5,0,4.6,0.6,6.3,1.7c0-0.1,0.1-0.3,0.1-0.4
		c1.4-4.4,3.6-8.1,6.3-11.2c-3.7-1.8-8-2.7-12.7-2.7c-11.5,0-20.6,5.3-24,16c-1.5,4.5-1.8,8.2-1.8,18c0,9.8,0.4,13.5,1.8,18
		c3.4,10.6,12.5,16,24,16c7.6,0,14.1-2.3,18.6-6.9l0,0c2.4-2.4,4.2-5.4,5.4-9.1c1.4-4.2,1.8-7.7,1.8-16.1l0,0c0-0.6,0-1.2,0-1.9
		c0-9.4,0.3-11.7,1.1-14.1c1.5-4.5,4.7-7.3,9.9-7.3c5.5,0,8.6,3.2,10.5,7.5c0.3,0.6,0.8,0.8,1.4,0.5L85.9,21
		C86.5,20.8,86.7,20.3,86.4,19.8"/>
	<path class="st0" d="M129.2,51.8c-0.7-2.2-1.2-4.9-1.2-12c0-7.1,0.5-9.8,1.2-12c2-6.1,6.6-9.3,13.4-9.3c6.7,0,11.3,3.2,13.3,9.3
		c0.7,2.2,1.2,4.9,1.2,12c0,7.1-0.5,9.8-1.2,12c-2,6.1-6.6,9.3-13.3,9.3C135.9,61.1,131.3,57.8,129.2,51.8 M152.6,28.8
		c-1.5-4.6-4.9-7-10-7c-5.2,0-8.5,2.4-10,7c-0.5,1.6-1,4.3-1,11c0,6.7,0.5,9.4,1,11c1.5,4.6,4.9,7,10,7c5.1,0,8.5-2.4,10-7
		c0.5-1.6,1-4.3,1-11C153.6,33.1,153.1,30.4,152.6,28.8"/>
	<path class="st0" d="M164.1,60.5c-0.4,0-0.6-0.2-0.6-0.6V32.1c0-0.4,0.2-0.6,0.6-0.6h2.1c0.4,0,0.6,0.2,0.6,0.6v3.7h0.1
		c1.1-2.9,3.7-4.9,7.8-4.9c2.3,0,4.4,0.8,5.8,2c0.3,0.2,0.4,0.5,0.1,0.8l-1.2,1.7c-0.2,0.3-0.5,0.3-0.9,0.1
		c-1.3-0.9-2.8-1.5-4.6-1.5c-5.1,0-7.1,4.4-7.1,9.8v16.1c0,0.4-0.2,0.6-0.6,0.6H164.1z"/>
	<path class="st0" d="M203.1,60.5c-0.4,0-0.6-0.2-0.6-0.6v-3.5h-0.1c-1.4,2.7-4,4.7-8.8,4.7c-5.1,0-8.4-2.3-9.8-6.9
		c-0.8-2.4-1-4.9-1-8.1c0-3.3,0.2-5.8,1-8.2c1.5-4.6,4.7-6.9,9.8-6.9c4.8,0,7.4,2,8.8,4.7h0.1V19.7c0-0.4,0.2-0.6,0.6-0.6h2.1
		c0.4,0,0.6,0.2,0.6,0.6v40.1c0,0.4-0.2,0.6-0.6,0.6H203.1z M201.7,52.8c0.5-1.6,0.8-3.6,0.8-6.8c0-3.2-0.2-5.3-0.8-6.9
		c-1.1-3.4-3.8-5.1-7.4-5.1c-3.8,0-6.3,1.8-7.4,5.1c-0.6,1.8-0.8,4.3-0.8,6.9c0,2.6,0.2,5,0.8,6.8c1.1,3.3,3.6,5.1,7.4,5.1
		C197.9,57.9,200.6,56.2,201.7,52.8"/>
	<path class="st0" d="M212.5,53.4c-0.5-1.8-0.9-3.8-0.9-7.5c0-3.6,0.3-5.8,0.9-7.5c1.6-4.9,5.5-7.5,10.8-7.5c5.2,0,9.2,2.7,10.8,7.5
		c0.6,1.8,0.9,3.7,0.9,7.7c0,0.4-0.2,0.6-0.7,0.6h-18.9c-0.2,0-0.4,0.2-0.4,0.4c0,2.4,0.2,3.8,0.6,5.1c1.3,3.8,4.3,5.7,8.2,5.7
		c3.8,0,6.4-1.6,8.1-3.7c0.2-0.3,0.5-0.4,0.9-0.1l1.4,1.3c0.3,0.2,0.3,0.5,0.1,0.9c-2.1,2.9-5.8,4.9-10.6,4.9
		C218,61.1,214.2,58.4,212.5,53.4 M231.3,43.9c0.2,0,0.4-0.1,0.4-0.4c0-1.8-0.2-3-0.5-4.2c-1.2-3.6-4-5.5-7.8-5.5
		c-3.8,0-6.6,1.9-7.7,5.5c-0.4,1.2-0.5,2.4-0.5,4.2c0,0.2,0.1,0.4,0.4,0.4H231.3z"/>
	<path class="st0" d="M241.2,60.5c-0.4,0-0.6-0.2-0.6-0.6V32.1c0-0.4,0.2-0.6,0.6-0.6h2.1c0.4,0,0.6,0.2,0.6,0.6v3.7h0.1
		c1.1-2.9,3.7-4.9,7.8-4.9c2.3,0,4.4,0.8,5.8,2c0.3,0.2,0.4,0.5,0.1,0.8l-1.2,1.7c-0.2,0.3-0.5,0.3-0.9,0.1
		c-1.3-0.9-2.8-1.5-4.6-1.5c-5.1,0-7.1,4.4-7.1,9.8v16.1c0,0.4-0.2,0.6-0.6,0.6H241.2z"/>
	<path class="st0" d="M261.5,39.8c0-7.2,0.4-10,1.1-12c2.1-6.2,6.6-9.2,13.1-9.2c5.7,0,10.1,2.6,12.5,7.7c0.1,0.3,0.1,0.6-0.2,0.8
		l-2,1c-0.3,0.2-0.6,0.1-0.8-0.2c-1.9-3.5-4.8-5.9-9.5-5.9c-5,0-8.1,2.4-9.7,6.9c-0.5,1.6-0.9,4.2-0.9,11.1s0.4,9.5,0.9,11.1
		c1.6,4.5,4.7,6.9,9.7,6.9c4.7,0,7.6-2.4,9.5-5.9c0.2-0.3,0.5-0.4,0.8-0.2l2,1c0.3,0.2,0.3,0.5,0.2,0.8c-2.4,5-6.8,7.7-12.5,7.7
		c-6.5,0-11-3-13.1-9.2C261.9,49.8,261.5,47,261.5,39.8"/>
	<path class="st0" d="M299.4,60.6c-4.4,0-6-2-6-6.8V19.7c0-0.4,0.2-0.6,0.6-0.6h2.1c0.4,0,0.6,0.2,0.6,0.6v34c0,2.9,0.9,3.8,3.1,3.8
		h1c0.4,0,0.6,0.2,0.6,0.6V60c0,0.4-0.2,0.6-0.6,0.6H299.4z"/>
	<path class="st0" d="M304.8,53.5c-0.6-1.9-1-4.1-1-7.6c0-3.5,0.4-5.6,1-7.5c1.6-4.8,5.5-7.5,10.8-7.5c5.3,0,9.3,2.7,10.9,7.5
		c0.6,1.9,1,4.1,1,7.5c0,3.5-0.4,5.7-1,7.6c-1.6,4.8-5.5,7.5-10.9,7.5C310.3,61.1,306.3,58.3,304.8,53.5 M323.3,52.5
		c0.5-1.6,0.8-3.4,0.8-6.6c0-3.1-0.2-4.9-0.8-6.5c-1.2-3.5-4-5.4-7.7-5.4c-3.7,0-6.5,1.9-7.7,5.4c-0.5,1.6-0.8,3.4-0.8,6.5
		c0,3.2,0.2,4.9,0.8,6.6c1.2,3.5,4,5.4,7.7,5.4C319.4,57.9,322.1,56,323.3,52.5"/>
	<path class="st0" d="M352.1,60.5c-0.4,0-0.6-0.2-0.6-0.6v-3.4h-0.1c-1.5,2.9-4.5,4.6-8.5,4.6c-6.4,0-10-4-10-11v-18
		c0-0.4,0.2-0.6,0.6-0.6h2.1c0.4,0,0.6,0.2,0.6,0.6v17.1c0,5.8,2.4,8.7,7.5,8.7c4.4,0,7.8-3,7.8-8.1V32.1c0-0.4,0.2-0.6,0.6-0.6h2.1
		c0.4,0,0.6,0.2,0.6,0.6v27.8c0,0.4-0.2,0.6-0.6,0.6H352.1z"/>
	<path class="st0" d="M381.2,60.5c-0.4,0-0.6-0.2-0.6-0.6v-3.5h-0.1c-1.4,2.7-4,4.7-8.8,4.7c-5.1,0-8.4-2.3-9.8-6.9
		c-0.8-2.4-1-4.9-1-8.1c0-3.3,0.2-5.8,1-8.2c1.5-4.6,4.7-6.9,9.8-6.9c4.8,0,7.4,2,8.8,4.7h0.1V19.7c0-0.4,0.2-0.6,0.6-0.6h2.1
		c0.4,0,0.6,0.2,0.6,0.6v40.1c0,0.4-0.2,0.6-0.6,0.6H381.2z M379.8,52.8c0.5-1.6,0.8-3.6,0.8-6.8c0-3.2-0.2-5.3-0.8-6.9
		c-1.1-3.4-3.8-5.1-7.4-5.1c-3.8,0-6.3,1.8-7.4,5.1c-0.6,1.8-0.8,4.3-0.8,6.9c0,2.6,0.2,5,0.8,6.8c1.1,3.3,3.6,5.1,7.4,5.1
		C376.1,57.9,378.7,56.2,379.8,52.8"/>
	<path class="st0" d="M390.8,55.8c0-0.4,0.2-0.6,0.6-0.6h3c0.4,0,0.6,0.2,0.6,0.6v4.1c0,0.4-0.2,0.6-0.6,0.6h-3
		c-0.4,0-0.6-0.2-0.6-0.6V55.8z"/>
	<path class="st0" d="M402.2,23.7c-0.4,0-0.6-0.2-0.6-0.6v-3.4c0-0.4,0.2-0.6,0.6-0.6h2.7c0.4,0,0.6,0.2,0.6,0.6v3.4
		c0,0.4-0.2,0.6-0.6,0.6H402.2z M402.5,60.5c-0.4,0-0.6-0.2-0.6-0.6V32.1c0-0.4,0.2-0.6,0.6-0.6h2.1c0.4,0,0.6,0.2,0.6,0.6v27.8
		c0,0.4-0.2,0.6-0.6,0.6H402.5z"/>
	<path class="st0" d="M411.9,53.5c-0.6-1.9-1-4.1-1-7.6c0-3.5,0.4-5.6,1-7.5c1.6-4.8,5.5-7.5,10.8-7.5c5.3,0,9.3,2.7,10.9,7.5
		c0.6,1.9,1,4.1,1,7.5c0,3.5-0.4,5.7-1,7.6c-1.6,4.8-5.5,7.5-10.9,7.5C417.4,61.1,413.5,58.3,411.9,53.5 M430.4,52.5
		c0.5-1.6,0.8-3.4,0.8-6.6c0-3.1-0.2-4.9-0.8-6.5c-1.2-3.5-4-5.4-7.7-5.4c-3.7,0-6.5,1.9-7.7,5.4c-0.5,1.6-0.8,3.4-0.8,6.5
		c0,3.2,0.2,4.9,0.8,6.6c1.2,3.5,4,5.4,7.7,5.4C426.5,57.9,429.3,56,430.4,52.5"/>
	<polygon class="st0" points="88.1,5.2 88,5.1 88,1.2 88,1.2 86.7,1.2 86.7,1.1 86.7,0.7 86.7,0.6 89.9,0.6 90,0.7 90,1.1 89.9,1.2 
		88.7,1.2 88.6,1.2 88.6,5.1 88.6,5.2 	"/>
	<polygon class="st0" points="90.7,0.7 90.8,0.6 91.2,0.6 91.3,0.7 92.7,3.8 92.7,3.8 94,0.7 94.1,0.6 94.6,0.6 94.6,0.7 94.6,5.1 
		94.6,5.2 94.1,5.2 94.1,5.1 94.1,2 94.1,2 92.9,4.5 92.8,4.6 92.5,4.6 92.4,4.5 91.3,2 91.2,2 91.2,5.1 91.2,5.2 90.8,5.2 
		90.7,5.1 	"/>
</g>
</svg>
