<?xml version="1.0" encoding="utf-8"?>
<!-- Generator: Adobe Illustrator 18.0.0, SVG Export Plug-In . SVG Version: 6.00 Build 0)  -->
<!DOCTYPE svg PUBLIC "-//W3C//DTD SVG 1.1//EN" "http://www.w3.org/Graphics/SVG/1.1/DTD/svg11.dtd">
<svg version="1.1" id="Layer_1" xmlns="http://www.w3.org/2000/svg" xmlns:xlink="http://www.w3.org/1999/xlink" x="0px" y="0px"
     viewBox="4.4 97 603.2 603.2" enable-background="new 4.4 97 603.2 603.2" xml:space="preserve">
<circle fill="#008FDC" cx="306" cy="398.6" r="301.6"/>
<path fill="#FFFFFF" d="M219.8,307.1c0-13.8,0-27,0-40.2c0-2,0.1-4.2,0.7-6.1c1.6-5.1,5.1-8.5,10.5-9.6c1.6-0.3,3.3-0.5,5-0.5
    c73.6,0,147.2,0,220.9,0c1.8,0,3.6,0.1,5.3,0.5c5.9,1.2,10.4,6.5,10.8,12.4c0.1,1.1,0.1,2.3,0.1,3.5c0,73.6-0.1,147.2,0.1,220.9
    c0,6.7-1.7,12.1-8.1,14.6c-3.4,1.3-7.3,1.3-11,1.6c-2.8,0.2-5.6,0-8.9,0c-0.5,19.8-9,35.2-25,46.6c-10,7.1-21.3,9.9-33.4,9.5
    c-15.1-0.4-27.8-6.2-38.4-17c-10.6-10.7-15.8-23.7-16-39c-28.2,0-56.1,0-84.3,0c-0.3,17.7-7.4,32.2-21,43.5
    c-10.2,8.4-22,12.5-35.1,12.5c-15.5,0.1-28.8-5.4-39.8-16.3c-11-10.9-16.6-24.1-16.7-40c-5.1,0-9.8,0-14.5,0
    c-4.6-0.1-9.2,0-13.8-0.3c-8.7-0.6-13.4-5-13.7-12.5c-0.4-8.1,4.3-13.8,12.5-15.3c0.4-0.1,0.7-0.2,1.4-0.4c0-1.3,0-2.7,0-4.1
    c0-26.2-0.1-52.3,0-78.5c0-5,0.3-10,1-14.9c1-7.1,4.4-13.1,9.4-18.1c14-14.1,28.1-28.2,42.2-42.2c7.5-7.4,16.7-10.7,27.1-10.8
    C197.7,307.1,208.5,307.1,219.8,307.1z M219.6,335.3c-11,0-21.6,0.1-32.2-0.1c-3.6-0.1-6.3,1.1-8.8,3.7
    c-12.9,13-25.7,26.1-38.9,38.8c-4.2,4-4.9,8.3-3.9,13.5c28,0,55.9,0,83.9,0C219.6,372.6,219.6,354.2,219.6,335.3z M219.7,504.5
    c0.1-15.5-12.4-28.3-27.7-28.4c-15.4-0.1-28.3,12.5-28.5,27.8c-0.1,15.4,12.6,28.3,27.8,28.4C206.8,532.4,219.6,519.9,219.7,504.5z
     M416.7,504.2c0-15.4-12.6-28.1-28-28.2c-15.4,0-28.2,12.7-28.2,28s12.7,28.2,28.1,28.2C404,532.3,416.7,519.6,416.7,504.2z"/>
<path fill="#008FDC" d="M349.8,278.2c1.3,0.8,1.7,2,1.7,3.5c-0.1,3.8,0,7.7,0,11.5c0,0.5,0,0.9,0,1.4c2,0.4,3.8,0.7,5.7,1.1
    c6.4,1.5,12.3,4.1,17.5,8.3c0.5,0.4,0.9,0.7,1.4,1.2c1.4,1.3,1.5,2.1,0.6,3.8c-2,3.6-3.9,7.1-5.9,10.6c-1.2,2.1-2.7,2.4-4.6,0.9
    c-3.3-2.5-6.7-4.7-10.6-6.1c-6.5-2.4-13-3-19.6-0.4c-5.3,2.1-8.2,6.2-7.9,11.4c0.2,2.6,1.4,4.7,3.3,6.5c2.4,2.2,5,3.9,8,5.1
    c5,2,10,4,15,6.1c5.8,2.5,11.5,5.1,16.5,9.2c6.4,5.4,9.1,12.2,9.1,20.4c0,14.7-10.4,26.1-22.9,29.8c-1.7,0.5-3.5,0.9-5.4,1.4
    c0,1.6,0,3.3,0,5c0,2.6-0.1,5.2,0,7.8c0,1.5-0.4,2.7-1.7,3.5c-4.1,0-8.1,0-12.2,0c-1.5-0.7-2-1.9-1.9-3.5c0.1-3.9,0-7.8,0-11.8
    c0-0.9-0.2-1.2-1.1-1.4c-9.7-1.6-18.3-5.5-25.8-11.9l-0.1-0.1c-3.4-2.7-3.5-3.6-0.9-7c1.9-2.5,3.9-5,5.8-7.6c1.7-2.3,3-3.2,5.8-0.7
    c5.2,4.6,11.1,7.7,17.9,9.1c5.6,1.2,11.1,1.1,16.2-1.9c8.3-4.9,8.4-14.9,0-19.5c-5-2.8-10.4-5-15.7-7.2c-6.5-2.7-12.9-5.4-18.6-9.6
    c-14.7-10.7-14.7-30.6-3.3-41.9c5.1-5,11.1-8.2,18-9.8c0.5-0.1,1.1-0.3,1.7-0.4c0-2.2,0-4.3,0-6.5c0-2.3,0-4.5,0-6.8
    c0-1.6,0.4-2.8,1.9-3.5C341.6,278.2,345.7,278.2,349.8,278.2z"/>
</svg>