<?xml version="1.0" encoding="utf-8"?>
<!-- Generator: Adobe Illustrator 18.1.0, SVG Export Plug-In . SVG Version: 6.00 Build 0)  -->
<!DOCTYPE svg PUBLIC "-//W3C//DTD SVG 1.1//EN" "http://www.w3.org/Graphics/SVG/1.1/DTD/svg11.dtd">
<svg version="1.1" id="Layer_1" xmlns="http://www.w3.org/2000/svg" xmlns:xlink="http://www.w3.org/1999/xlink" x="0px" y="0px"
	 viewBox="0 0 221.3 184.5" enable-background="new 0 0 221.3 184.5" xml:space="preserve">
<g>
	<polygon fill="#171717" points="15.3,157.9 7,145.8 1.2,145.8 1.2,168.4 7,168.4 7,156.2 11.8,163.2 15.3,168.4 18.9,163.2
		23.6,156.2 23.6,168.4 29.4,168.4 29.4,145.8 23.6,145.8 	"/>
	<g>
		<rect x="66.5" y="15.9" fill="#E6E6E5" width="86.5" height="76.6"/>
		<polygon fill="#DADBDB" points="153,15.9 66.5,15.9 109.7,79.1 		"/>
		<polygon fill="#BABCBE" points="100.6,92.5 118.9,92.5 109.7,79.1 		"/>
		<polygon points="109.7,56.1 91.3,29 91.3,52.2 101.8,67.7 109.7,56.1 		"/>
		<polygon fill="#F7A343" points="109.7,56.1 117.7,67.7 128.1,52.4 128.1,29 		"/>
		<polygon fill="#C77D2A" points="109.7,56.1 101.8,67.7 109.7,79.3 117.7,67.7 109.7,56.1 		"/>
		<polygon fill="#43B9E4" points="78.2,79.4 91.3,79.4 91.3,52.2 78.2,33 		"/>
		<polygon fill="#038CC0" points="78.2,29 78.2,33 91.3,52.2 91.3,29 		"/>
		<polygon fill="#D21F38" points="128.1,52.4 128.1,79.4 141.2,79.4 141.2,33.3 		"/>
		<polygon fill="#A11D2E" points="141.2,29 128.1,29 128.1,52.4 141.2,33.3 		"/>
	</g>
	<path fill="#171717" d="M54.7,145.8h-7.5l-8.1,22.9h6.1l1.6-4.8h8l1.7,4.8h6.1l-0.1-0.3L54.7,145.8z M53.4,159h-5.2l2.7-7.9
		L53.4,159z"/>
	<polygon fill="#171717" points="87.8,146 87.8,159.8 78.8,145.8 72.3,145.8 72.3,168.7 78.1,168.7 78.1,154.7 87.2,168.9
		93.6,168.9 93.6,145.8 87.8,145.8 	"/>
	<path fill="#171717" d="M121.2,148.9c-1.1-1-2.4-1.8-4-2.3c-1.6-0.5-3.3-0.8-5.3-0.8h-8.7v22.9h8.3c2.1,0,3.9-0.3,5.5-0.8
		c1.6-0.5,3-1.3,4.1-2.3c1.1-1,1.9-2.2,2.5-3.7c0.6-1.4,0.9-3,0.9-4.8c0-1.7-0.3-3.2-0.8-4.6C123.1,151.1,122.2,149.9,121.2,148.9z
		 M111.8,163.6h-2.4v-12.8h2.1c2.3,0,4,0.5,5.1,1.5c1.1,1,1.7,2.6,1.7,4.9c0,2.2-0.6,3.8-1.7,4.8
		C115.4,163.1,113.8,163.6,111.8,163.6z"/>
	<path fill="#171717" d="M151.4,157.2c0.8-1.1,1.2-2.5,1.2-4.1c0-2.2-0.8-4-2.4-5.4c-1.6-1.3-3.9-2-6.9-2h-9.2v22.9h6.2v-0.2v-7.1
		l2.3-0.2l4.5,7.5h7l-5.8-9C149.6,159.1,150.7,158.3,151.4,157.2z M142.8,156.6l-2.6,0.1v-5.9l2.2,0c1.4,0,2.4,0.2,3,0.7
		c0.6,0.5,1,1.1,1,2c0,1-0.3,1.8-0.9,2.2C144.9,156.2,144,156.5,142.8,156.6L142.8,156.6z"/>
	<polygon fill="#171717" points="163.6,168.7 163.9,168.7 169.8,168.7 169.8,145.8 163.6,145.8 	"/>
	<polygon fill="#171717" points="185.6,145.8 179.4,145.8 179.4,168.7 179.6,168.7 195,168.7 195,163.4 185.6,163.4 	"/>
	<polygon fill="#171717" points="210.8,163.4 210.8,145.8 204.6,145.8 204.6,168.7 204.8,168.7 220.2,168.7 220.2,163.4 	"/>
</g>
</svg>
