<?xml version="1.0" encoding="utf-8"?>
<!-- Generator: Adobe Illustrator 20.0.0, SVG Export Plug-In . SVG Version: 6.00 Build 0)  -->
<svg version="1.1" id="Layer_1" xmlns="http://www.w3.org/2000/svg" xmlns:xlink="http://www.w3.org/1999/xlink" x="0px" y="0px"
	 viewBox="0 0 16 16" style="enable-background:new 0 0 16 16;" xml:space="preserve">
<style type="text/css">
	.st0{fill:#0C648E;}
</style>
<path class="st0" d="M9.2,7H9V4c0-1.7-1.3-3-3-3H4C2.3,1,1,2.3,1,4v3H0.8C0.3,7,0,7.3,0,7.8v7.5C0,15.7,0.3,16,0.8,16h8.5
	c0.4,0,0.8-0.3,0.8-0.8V7.8C10,7.3,9.7,7,9.2,7z M3,4c0-0.6,0.4-1,1-1h2c0.6,0,1,0.4,1,1v3H3V4z"/>
</svg>
