<?xml version="1.0" encoding="utf-8"?>
<!-- Generator: Adobe Illustrator 20.0.0, SVG Export Plug-In . SVG Version: 6.00 Build 0)  -->
<svg version="1.1" id="Layer_1" xmlns="http://www.w3.org/2000/svg" xmlns:xlink="http://www.w3.org/1999/xlink" x="0px" y="0px"
	 viewBox="0 0 16 16" style="enable-background:new 0 0 16 16;" xml:space="preserve">
<style type="text/css">
	.st0{fill:#F26964;}
</style>
<path class="st0" d="M5.7,11.3l0.6-0.9L5.6,9.7l-0.9,0.6c-0.2-0.1-0.3-0.2-0.5-0.2L4,9H3l-0.2,1.1c-0.2,0.1-0.4,0.1-0.5,0.2L1.4,9.7
	l-0.7,0.7l0.6,0.9c-0.1,0.2-0.2,0.3-0.2,0.5L0,12v1l1.1,0.2c0.1,0.2,0.1,0.4,0.2,0.5l-0.6,0.9l0.7,0.7l0.9-0.6
	c0.2,0.1,0.3,0.2,0.5,0.2L3,16h1l0.2-1.1c0.2-0.1,0.4-0.1,0.5-0.2l0.9,0.6l0.7-0.7l-0.6-0.9c0.1-0.2,0.2-0.3,0.2-0.5L7,13v-1
	l-1.1-0.2C5.9,11.6,5.8,11.4,5.7,11.3L5.7,11.3z M3.5,13.5c-0.6,0-1-0.4-1-1s0.4-1,1-1s1,0.4,1,1S4.1,13.5,3.5,13.5z M16,6V5
	l-1.1-0.2c0-0.1,0-0.2-0.1-0.4l0.9-0.6l-0.4-0.9l-1,0.2c-0.1-0.1-0.1-0.2-0.2-0.3L14.7,2L14,1.3l-0.9,0.6c-0.1-0.1-0.2-0.1-0.3-0.2
	l0.2-1l-0.9-0.4l-0.6,0.9c-0.1,0-0.2-0.1-0.4-0.1L11,0h-1L9.8,1.1c-0.1,0-0.2,0-0.4,0.1L8.9,0.2L7.9,0.6l0.2,1
	C8,1.7,7.9,1.8,7.8,1.9L7,1.3L6.3,2l0.6,0.9C6.8,2.9,6.7,3.1,6.7,3.2l-1-0.2L5.2,3.9l0.9,0.6c0,0.1-0.1,0.2-0.1,0.4L5,5v1L6,6.2
	c0,0.1,0,0.2,0.1,0.4L5.2,7.1l0.4,0.9l1-0.2c0.1,0.1,0.1,0.2,0.2,0.3L6.3,9L7,9.7l0.9-0.6C7.9,9.2,8,9.3,8.2,9.3l-0.2,1l0.9,0.4
	l0.6-0.9c0.1,0,0.2,0.1,0.4,0.1L10,11h1l0.2-1.1c0.1,0,0.2,0,0.4-0.1l0.6,0.9l0.9-0.4l-0.2-1c0.1-0.1,0.2-0.1,0.3-0.2L14,9.7L14.7,9
	l-0.6-0.9c0.1-0.1,0.1-0.2,0.2-0.3l1,0.2l0.4-0.9l-0.9-0.6c0-0.1,0.1-0.2,0.1-0.4C14.9,6.2,16,6,16,6z M10.5,7.7
	c-1.2,0-2.2-1-2.2-2.2s1-2.2,2.2-2.2s2.2,1,2.2,2.2S11.7,7.7,10.5,7.7z"/>
</svg>
